<?xml version="1.0" standalone="no"?>
<!DOCTYPE svg PUBLIC "-//W3C//DTD SVG 20010904//EN"
 "http://www.w3.org/TR/2001/REC-SVG-20010904/DTD/svg10.dtd">
<svg version="1.0" xmlns="http://www.w3.org/2000/svg"
 width="1108.000000pt" height="1108.000000pt" viewBox="0 0 1108.000000 1108.000000"
 preserveAspectRatio="xMidYMid meet">
<metadata>
Created by potrace 1.11, written by Peter Selinger 2001-2013
</metadata>
<g transform="translate(0.000000,1108.000000) scale(0.100000,-0.100000)"
fill="#000000" stroke="none">
<path d="M2309 8186 c-2 -2 -33 -6 -69 -10 -60 -6 -105 -12 -155 -20 -11 -2
-38 -7 -60 -11 -161 -28 -434 -122 -595 -205 -138 -71 -311 -179 -375 -234
-16 -14 -33 -26 -36 -26 -17 0 -228 -196 -329 -306 -39 -43 -69 -80 -148 -181
-9 -13 -25 -33 -34 -44 -10 -12 -18 -26 -18 -30 0 -4 -6 -14 -13 -21 -12 -13
-75 -110 -115 -178 -25 -44 -132 -255 -132 -262 0 -3 -8 -23 -17 -44 -9 -22
-18 -44 -19 -50 -1 -6 -9 -27 -17 -45 -28 -65 -77 -221 -98 -314 -6 -27 -13
-59 -15 -70 -11 -45 -20 -96 -30 -164 -4 -25 -8 -55 -10 -66 -12 -62 -18 -183
-18 -365 0 -206 5 -285 29 -445 10 -67 50 -251 69 -317 9 -29 16 -56 17 -60 0
-10 51 -147 88 -240 49 -124 175 -369 193 -376 4 -2 8 -9 8 -15 0 -10 102
-165 136 -206 7 -9 38 -47 69 -86 96 -119 300 -321 378 -374 12 -8 24 -17 27
-20 25 -29 233 -167 321 -214 35 -18 73 -39 84 -45 141 -78 481 -190 655 -216
19 -3 46 -8 60 -11 13 -2 56 -8 95 -12 95 -11 6533 -10 6615 0 79 10 109 15
135 20 11 2 36 7 55 11 67 12 79 15 174 40 132 35 270 88 411 157 66 32 127
63 135 68 8 5 49 30 91 56 383 230 721 607 938 1044 52 104 133 298 133 318 0
4 3 13 7 18 5 6 12 24 16 40 5 17 10 35 12 40 10 30 73 285 78 315 2 19 6 46
9 60 23 124 31 242 30 450 0 248 -7 337 -44 520 -6 30 -13 69 -16 85 -2 17 -7
38 -10 47 -3 9 -7 25 -9 35 -19 78 -27 108 -33 117 -3 6 -7 16 -8 23 -2 13
-23 80 -31 103 -4 8 -7 18 -8 23 -2 4 -4 9 -5 12 -1 3 -3 8 -5 13 -1 4 -6 18
-12 32 -6 14 -21 49 -33 79 -44 112 -157 320 -242 448 -48 72 -94 137 -100
145 -7 7 -31 36 -53 63 -70 88 -128 149 -317 327 -15 14 -28 24 -28 22 0 -3
-10 5 -22 17 -13 11 -43 35 -68 52 -24 17 -53 38 -62 47 -10 8 -60 41 -111 72
-50 32 -97 62 -104 68 -7 5 -15 10 -18 10 -2 0 -60 26 -127 59 -68 32 -159 71
-203 86 -44 15 -89 31 -100 36 -11 4 -47 15 -80 24 -33 9 -69 18 -80 21 -11 3
-29 7 -40 8 -11 2 -31 6 -45 9 -31 8 -71 15 -130 23 -25 3 -56 8 -70 12 -27 6
-6544 15 -6551 8z m662 -866 c8 -23 4 -2459 -5 -2500 -35 -166 -69 -259 -136
-371 -50 -84 -48 -82 -142 -180 -63 -66 -121 -113 -203 -167 -47 -30 -174 -84
-241 -103 -94 -26 -105 -28 -189 -35 -38 -3 -73 -8 -77 -11 -5 -2 -8 -1 -8 4
0 4 -35 8 -78 9 -42 1 -89 4 -104 8 -16 3 -39 8 -51 11 -171 36 -387 160 -507
291 -119 129 -218 313 -245 453 -2 12 -6 30 -9 39 -28 99 -24 315 9 441 31
122 102 277 152 335 12 13 19 26 17 29 -9 9 177 186 241 228 110 72 238 133
297 140 4 0 31 8 60 16 38 11 123 16 301 20 l247 5 0 -236 -1 -236 -22 0 c-12
-1 -107 -2 -212 -4 -148 -2 -204 -6 -252 -20 -35 -10 -63 -23 -63 -28 0 -5 -4
-7 -9 -4 -26 16 -194 -130 -236 -206 -31 -54 -52 -106 -60 -143 -5 -22 -10
-47 -12 -55 -2 -8 -4 -45 -4 -82 -4 -244 164 -457 413 -523 105 -28 300 -4
370 46 14 11 29 19 32 19 13 0 70 46 110 89 61 66 110 148 127 216 5 22 12 49
15 60 4 11 8 569 9 1240 1 671 3 1220 4 1220 0 0 103 0 229 0 194 0 228 -2
233 -15z m1334 -1355 c428 -87 736 -395 821 -819 11 -58 14 -202 15 -665 0
-282 -2 -516 -5 -519 -9 -8 -59 -8 -82 0 -12 4 -24 4 -28 1 -8 -8 -186 -9
-186 -1 0 4 -7 5 -16 1 -24 -9 -66 -10 -91 -1 -12 4 -25 3 -28 -2 -3 -5 -12
-7 -20 -3 -13 4 -15 77 -15 528 0 538 -3 587 -42 685 -94 239 -357 380 -605
325 -173 -38 -295 -132 -374 -288 -56 -109 -57 -123 -59 -704 0 -295 -3 -539
-5 -541 -3 -4 -108 -4 -215 -2 -8 0 -60 0 -115 -1 -55 0 -107 0 -116 0 -13 1
-17 15 -18 74 -3 96 -3 95 -1 147 1 49 2 176 1 200 -1 8 0 38 0 65 1 28 1 70
-1 95 -2 52 -2 53 0 145 1 39 1 75 0 80 -1 6 -2 14 -1 19 2 8 2 153 0 196 -2
48 15 169 33 235 5 22 11 45 13 50 1 6 7 24 14 40 6 17 17 44 23 60 57 148
186 310 333 420 52 39 215 128 230 126 3 -1 20 5 38 13 37 15 122 36 177 43
19 2 36 6 38 8 6 5 253 -3 287 -10z m3000 -222 l1 -233 -46 -1 c-25 0 -344 0
-710 -1 -722 0 -707 1 -757 -56 -59 -67 -41 -177 36 -224 35 -22 41 -22 481
-24 363 -1 458 -4 515 -17 70 -16 178 -65 225 -102 36 -29 140 -132 140 -139
0 -3 13 -26 30 -52 26 -41 58 -119 67 -164 29 -142 17 -288 -34 -399 -44 -95
-132 -203 -210 -258 -77 -55 -192 -99 -283 -109 -26 -3 -540 -6 -670 -4 -8 0
-76 0 -150 -1 -74 0 -139 0 -145 1 -5 1 -14 1 -20 0 -24 -5 -315 -3 -321 3 -3
3 -17 2 -30 -3 -14 -6 -26 -6 -29 1 -4 5 -10 7 -15 4 -18 -11 -81 -11 -88 -1
-5 6 -8 112 -8 236 l1 225 726 5 c671 5 727 6 752 23 97 63 90 209 -13 262
-32 17 -72 18 -485 20 -247 1 -463 5 -480 9 -69 18 -155 48 -155 55 0 3 -13
11 -28 17 -79 30 -203 161 -253 269 -60 127 -78 282 -49 406 15 62 79 209 91
209 5 0 9 5 9 10 0 9 33 51 66 84 82 82 216 155 314 171 19 3 36 8 38 10 3 2
338 3 746 2 l741 -2 0 -232z m1321 224 c169 -40 242 -68 347 -129 110 -64 197
-141 297 -265 70 -86 160 -285 176 -388 2 -11 7 -36 11 -55 4 -19 7 -116 8
-215 l0 -180 -670 0 -670 0 0 235 -1 235 408 0 c224 0 408 2 408 5 0 7 -37 67
-53 86 -53 65 -115 117 -177 149 -208 107 -464 68 -625 -93 -146 -146 -191
-318 -141 -537 28 -126 154 -272 286 -332 87 -39 124 -47 230 -47 84 0 118 5
170 23 66 23 190 96 190 112 0 29 47 -9 190 -153 88 -88 159 -165 158 -169 -5
-14 -152 -129 -165 -129 -7 0 -13 -4 -13 -8 0 -10 -165 -90 -197 -97 -12 -2
-30 -8 -40 -13 -37 -19 -176 -39 -308 -44 -49 -2 -183 18 -253 38 -377 108
-657 414 -728 794 -13 73 -12 287 2 356 47 232 155 428 315 569 95 84 151 122
244 164 28 12 57 26 66 31 23 12 167 51 207 56 20 3 37 6 39 8 5 5 265 -2 289
-7z"/>
</g>
</svg>
