<?xml version="1.0" encoding="UTF-8" standalone="no"?>
<!-- Created with Inkscape (http://www.inkscape.org/) -->

<svg
   xmlns:dc="http://purl.org/dc/elements/1.1/"
   xmlns:cc="http://creativecommons.org/ns#"
   xmlns:rdf="http://www.w3.org/1999/02/22-rdf-syntax-ns#"
   xmlns:svg="http://www.w3.org/2000/svg"
   xmlns="http://www.w3.org/2000/svg"
   xmlns:sodipodi="http://sodipodi.sourceforge.net/DTD/sodipodi-0.dtd"
   xmlns:inkscape="http://www.inkscape.org/namespaces/inkscape"
   width="73.291649mm"
   height="35.057293mm"
   viewBox="0 0 73.291649 35.057293"
   version="1.1"
   id="svg4892"
   inkscape:version="0.92.0 r15299"
   sodipodi:docname="final.svg">
  <defs
     id="defs4886" />
  <sodipodi:namedview
     id="base"
     pagecolor="#ffffff"
     bordercolor="#666666"
     borderopacity="1.0"
     inkscape:pageopacity="0.0"
     inkscape:pageshadow="2"
     inkscape:zoom="1.4"
     inkscape:cx="263.30269"
     inkscape:cy="-6.5170134"
     inkscape:document-units="mm"
     inkscape:current-layer="layer1"
     showgrid="false"
     inkscape:window-width="1920"
     inkscape:window-height="1017"
     inkscape:window-x="-8"
     inkscape:window-y="-8"
     inkscape:window-maximized="1"
     showborder="false"
     fit-margin-top="0"
     fit-margin-left="0"
     fit-margin-right="0"
     fit-margin-bottom="0"
     inkscape:snap-nodes="false"
     inkscape:snap-others="false" />
  <metadata
     id="metadata4889">
    <rdf:RDF>
      <cc:Work
         rdf:about="">
        <dc:format>image/svg+xml</dc:format>
        <dc:type
           rdf:resource="http://purl.org/dc/dcmitype/StillImage" />
        <dc:title></dc:title>
      </cc:Work>
    </rdf:RDF>
  </metadata>
  <g
     inkscape:label="Capa 1"
     inkscape:groupmode="layer"
     id="layer1"
     transform="translate(-11.340199,-24.246588)">
    <path
       style="opacity:1;fill:#699ebe;fill-opacity:1;stroke-width:0.48467356"
       d="M 63.337891,0.32226562 A 62.047798,66.249635 0 0 0 1.2890625,66.572266 62.047798,66.249635 0 0 0 63.337891,132.82227 H 216.24805 A 62.047798,66.249635 0 0 0 278.29688,66.572266 62.047798,66.249635 0 0 0 216.24805,0.32226562 Z M 63.896484,21.685547 H 75.685547 V 80.853516 A 25.25945,25.25945 0 0 1 60.091797,104.18945 25.25945,25.25945 0 0 1 32.564453,98.714844 25.25945,25.25945 0 0 1 27.089844,71.185547 25.25945,25.25945 0 0 1 50.425781,55.59375 v -0.02539 h 8.347657 v 11.8125 h -8.347657 a 13.471707,13.471707 0 0 0 -12.445312,8.316407 13.471707,13.471707 0 0 0 2.917969,14.68164 13.471707,13.471707 0 0 0 14.68164,2.919922 13.471707,13.471707 0 0 0 8.316406,-12.445312 z m 40.654296,33.90625 a 25.25945,25.25945 0 0 1 25.25781,25.259765 V 106.11133 H 118.02148 V 80.851562 A 13.471707,13.471707 0 0 0 104.55078,67.380859 13.471707,13.471707 0 0 0 91.078125,80.851562 V 106.11133 H 79.291016 V 80.851562 A 25.25945,25.25945 0 0 1 104.55078,55.591797 Z m 44.43945,0.002 34.94141,0.002 v 11.787109 h -34.94141 v 0.01563 a 3.7889174,3.7889174 0 0 0 -3.28125,1.894531 3.7889174,3.7889174 0 0 0 0,3.789062 3.7889174,3.7889174 0 0 0 3.28125,1.894531 v -0.01562 h 19.36524 v -0.002 a 15.576662,15.576662 0 0 1 15.57617,15.576172 15.576662,15.576662 0 0 1 -15.57617,15.576178 H 133.41406 V 94.324219 h 34.94141 a 3.7889178,3.7889178 0 0 0 3.78906,-3.789063 3.7889178,3.7889178 0 0 0 -3.78906,-3.787109 h -19.36524 v 0.01563 A 15.576662,15.576662 0 0 1 135.5,78.974609 a 15.576662,15.576662 0 0 1 0,-15.576171 15.576662,15.576662 0 0 1 13.49023,-7.789063 z m 63.80469,0 a 25.259452,25.259452 0 0 1 25.25977,25.259766 v 5.892578 h -33.67774 v -11.78711 h 20.52149 a 13.471707,13.471707 0 0 0 -12.10352,-7.578125 13.471707,13.471707 0 0 0 -13.4707,13.472657 13.471707,13.471707 0 0 0 8.3164,12.445312 13.471707,13.471707 0 0 0 14.67969,-2.919922 l 8.33594,8.335938 a 25.25945,25.25945 0 0 1 -27.52734,5.474609 25.25945,25.25945 0 0 1 -15.5918,-23.335937 25.259452,25.259452 0 0 1 25.25781,-25.259766 z"
       id="path4541"
       transform="matrix(0.26458333,0,0,0.26458333,10.999135,24.161322)"
       inkscape:connector-curvature="0" />
    <path
       id="path4553"
       d="m 70.589008,44.184872 a 3.5643892,3.5643892 0 0 1 0.09417,0.25695 3.5643892,3.5643892 0 0 0 -0.09417,-0.25695 z"
       style="opacity:1;fill:#ffffff;stroke-width:0.09065093"
       inkscape:connector-curvature="0" />
    <path
       id="path4555"
       d="m 70.71173,44.527482 a 3.5643892,3.5643892 0 0 1 0.06239,0.2429 3.5643892,3.5643892 0 0 0 -0.06239,-0.2429 z"
       style="opacity:1;fill:#ffffff;stroke-width:0.09065093"
       inkscape:connector-curvature="0" />
    <path
       id="path4557"
       d="m 70.798531,44.879522 a 3.5643892,3.5643892 0 0 1 0.03386,0.22057 3.5643892,3.5643892 0 0 0 -0.03386,-0.22057 z"
       style="opacity:1;fill:#ffffff;stroke-width:0.09065093"
       inkscape:connector-curvature="0" />
    <path
       id="path4559"
       d="m 70.849645,45.242842 a 3.5643892,3.5643892 0 0 1 0.01613,0.31083 3.5643892,3.5643892 0 0 0 -0.01613,-0.31083 z"
       style="opacity:1;fill:#ffffff;stroke-width:0.09065093"
       inkscape:connector-curvature="0" />
    <path
       inkscape:connector-curvature="0"
       id="path4595"
       d="m 74.86468,29.946592 a 2.5872465,2.5872465 0 0 0 -2.374908,1.70176 l 1.1345,0.41296 a 1.3798649,1.3798649 0 0 1 1.614873,-0.87066 1.3798649,1.3798649 0 0 1 1.052337,1.50288 1.3798649,1.3798649 0 0 1 -1.370503,1.21956 v 1.20739 a 1.3798649,1.3798649 0 0 1 1.370503,1.21956 1.3798649,1.3798649 0 0 1 -1.052337,1.50288 1.3798649,1.3798649 0 0 1 -1.614873,-0.87065 l -1.1345,0.41296 a 2.5872465,2.5872465 0 0 0 2.374908,1.70175 2.5872465,2.5872465 0 0 0 0.652916,-0.0692 2.5872465,2.5872465 0 0 0 1.973054,-2.81785 2.5872465,2.5872465 0 0 0 -0.909151,-1.68319 2.5872465,2.5872465 0 0 0 0.909151,-1.68304 2.5872465,2.5872465 0 0 0 -1.973054,-2.81784 2.5872465,2.5872465 0 0 0 -0.652916,-0.0692 z"
       style="opacity:1;fill:#ffffff;fill-opacity:0.67839194;stroke-width:0.09381843" />
  </g>
</svg>
